<svg version="1.1" id="Layer_1" xmlns="http://www.w3.org/2000/svg" xmlns:xlink="http://www.w3.org/1999/xlink" x="0px" y="0px"
	 width="100%" viewBox="0 0 114 110" enable-background="new 0 0 114 110" xml:space="preserve">
<path fill="#5A85B4" opacity="1.000000" stroke="none" 
	d="
M71.000000,111.000000 
	C48.333332,111.000000 26.166424,110.952576 4.000336,111.065773 
	C1.499051,111.078545 0.928679,110.499977 0.935550,107.999825 
	C1.030829,73.333420 1.030829,38.666584 0.935550,4.000177 
	C0.928679,1.500022 1.500079,0.929112 4.000168,0.935645 
	C39.999924,1.029718 76.000076,1.029718 111.999832,0.935645 
	C114.499924,0.929112 115.071320,1.500022 115.064453,4.000177 
	C114.969177,38.666584 114.969177,73.333420 115.064453,107.999825 
	C115.071327,110.499977 114.503082,111.093941 111.999290,111.067505 
	C98.500793,110.924911 85.000000,111.000000 71.000000,111.000000 
z"/>
<path fill="#F9FAFC" opacity="1.000000" stroke="none" 
	d="
M91.412895,29.137869 
	C86.621635,26.260857 86.548180,29.342152 86.547684,32.501411 
	C86.544563,52.501118 86.560265,72.500862 86.514244,92.500465 
	C86.510223,94.247368 87.048752,96.113144 85.439827,98.538879 
	C85.315453,96.317947 85.159760,94.819839 85.158516,93.321594 
	C85.142113,73.655228 85.147896,53.988838 85.146469,34.322456 
	C85.146385,33.155880 85.139938,31.989189 85.122879,30.822752 
	C85.098183,29.133783 84.606323,27.851562 82.565720,27.952368 
	C80.543701,28.052252 80.194405,29.414970 80.203033,31.061800 
	C80.209152,32.228367 80.190918,33.395039 80.190826,34.561661 
	C80.189323,54.561371 80.116364,74.561592 80.258171,94.560295 
	C80.282448,97.983253 79.398476,99.280052 75.818092,99.088486 
	C70.500038,98.803955 65.147362,98.836792 59.825336,99.081245 
	C56.665123,99.226402 55.890923,98.085258 55.924408,95.084915 
	C56.067627,82.253380 55.994480,69.419296 55.979683,56.586166 
	C55.972363,50.236458 54.966854,49.474487 49.162079,51.570572 
	C48.113510,51.949211 47.278774,52.114685 46.401291,51.420383 
	C44.610695,50.003582 42.721756,49.888035 40.890110,51.203224 
	C39.594631,52.133419 38.599091,51.756969 37.242908,51.225136 
	C32.542633,49.381893 31.037577,50.539383 31.025654,55.826462 
	C30.996712,68.659538 30.883362,81.494965 31.099443,94.324471 
	C31.161045,97.982101 30.288406,99.365242 26.431730,99.098732 
	C21.455462,98.754852 16.437643,99.015060 11.437726,99.009560 
	C8.010232,99.005783 6.547856,97.596519 7.484159,93.994400 
	C14.294640,67.793251 21.086325,41.586979 27.758011,15.350304 
	C28.553928,12.220325 30.011740,10.874865 33.260082,10.944243 
	C39.923603,11.086562 46.597950,11.149767 53.256607,10.919994 
	C56.847256,10.796092 58.241001,12.411550 59.022118,15.641854 
	C63.246918,33.113472 67.606583,50.552498 71.929482,68.000351 
	C72.322128,69.585114 72.783585,71.152824 73.293327,73.022842 
	C75.130234,71.405518 74.409882,69.544739 74.418976,67.957901 
	C74.488731,55.791813 74.442757,43.625118 74.463966,31.458664 
	C74.476463,24.292984 74.810120,23.991043 82.158951,23.985167 
	C87.325539,23.981037 92.492813,24.038343 97.658485,23.970110 
	C101.317039,23.921783 103.094109,25.266083 103.071594,29.267822 
	C102.950638,50.766830 103.017113,72.266876 103.006378,93.766556 
	C103.005882,94.761826 103.111458,95.843643 102.770477,96.732849 
	C102.196335,98.230034 101.011284,99.080612 99.259293,98.967613 
	C97.199150,98.834732 97.504051,97.272911 97.494438,96.027138 
	C97.444214,89.527611 97.459549,83.027550 97.457932,76.527679 
	C97.454285,61.861229 97.463371,47.194767 97.443748,32.528339 
	C97.440308,29.952858 97.645103,27.071043 93.224419,28.661295 
	C92.601189,29.339603 92.168732,29.479906 91.412895,29.137869 
z"/>
<path fill="#F5F7FA" opacity="1.000000" stroke="none" 
	d="
M105.497192,31.425575 
	C105.715012,26.582535 105.867310,22.098475 105.935204,17.613138 
	C105.948700,16.721930 106.282089,15.427026 104.864113,15.239099 
	C103.267403,15.027485 102.773537,16.230900 102.938179,17.463802 
	C103.761848,23.632017 100.466331,22.947575 96.073990,22.305744 
	C90.345535,21.468681 84.463593,21.372940 78.694725,22.734545 
	C76.329918,23.292702 74.218781,23.191111 74.465645,19.864994 
	C74.702629,16.672014 73.965088,14.252643 69.590309,13.974477 
	C76.940559,11.940725 83.791092,10.658687 90.821426,11.154361 
	C95.790810,11.504727 101.712692,10.801368 105.422447,13.262208 
	C109.620171,16.046732 106.166611,22.384054 107.033775,27.087368 
	C107.333466,28.712841 107.823723,30.479202 107.464180,32.000996 
	C107.100204,33.541538 105.854927,34.302860 105.497192,31.425575 
z"/>
<path fill="#ACC2DA" opacity="1.000000" stroke="none" 
	d="
M91.118713,29.344402 
	C91.560570,28.891670 91.956306,28.914209 92.649460,28.944973 
	C92.946869,51.900032 92.946869,74.846863 92.946869,97.793701 
	C92.322113,97.801262 91.697357,97.808823 91.072601,97.816376 
	C91.072601,75.150810 91.072601,52.485245 91.118713,29.344402 
z"/>
<path fill="#E0E8F1" opacity="1.000000" stroke="none" 
	d="
M38.407539,67.217850 
	C40.278301,67.269569 42.360111,66.199379 42.796211,68.598648 
	C43.045403,69.969620 43.023891,71.646484 42.432011,72.843262 
	C41.808540,74.103928 39.912636,74.006149 38.874405,73.483810 
	C35.873299,71.973984 37.141239,69.562897 38.407539,67.217850 
z"/>
<path fill="#EEF3F7" opacity="1.000000" stroke="none" 
	d="
M48.842209,67.791611 
	C49.035938,68.302376 49.100834,68.462479 49.097359,68.621078 
	C49.051273,70.726036 50.251984,73.480774 46.407063,73.561150 
	C43.577553,73.620293 43.929211,71.650948 43.922482,69.867912 
	C43.907581,65.917152 46.514648,67.111122 48.842209,67.791611 
z"/>
<path fill="#EEF3F7" opacity="1.000000" stroke="none" 
	d="
M41.071526,66.000229 
	C39.534210,65.821136 37.686108,66.646019 37.681602,64.598419 
	C37.677364,62.672340 39.046947,61.342709 40.689350,60.432644 
	C41.417393,60.029243 42.523586,59.792591 42.641434,60.869484 
	C42.834518,62.633896 43.940350,64.772331 41.071526,66.000229 
z"/>
<path fill="#EEF3F7" opacity="1.000000" stroke="none" 
	d="
M46.856174,66.018028 
	C43.092331,66.197784 44.053200,63.712555 43.960968,61.950634 
	C43.922485,61.215569 43.819973,60.098469 44.951458,60.107300 
	C46.510902,60.119461 47.881985,60.998798 48.358170,62.408127 
	C48.767658,63.620041 50.355942,65.651154 46.856174,66.018028 
z"/>
<path fill="#658DB9" opacity="1.000000" stroke="none" 
	d="
M37.093040,48.880104 
	C34.401264,48.458191 32.921028,47.824406 34.949589,45.173916 
	C37.069332,42.404285 38.897923,39.413845 40.946884,36.587421 
	C42.795757,34.037006 44.525108,33.956535 46.240948,36.882156 
	C47.662113,39.305344 49.385193,41.549870 50.936092,43.898918 
	C53.461025,47.723263 52.892712,49.596748 48.401272,49.155609 
	C44.697529,48.791840 41.069561,49.614662 37.093040,48.880104 
z"/>
</svg>